<svg width="24" height="25" viewBox="0 0 24 25" fill="none" xmlns="http://www.w3.org/2000/svg">
<path d="M21.5 18.2876L14.8571 12.2876M9.14286 12.2876L2.50003 18.2876M2 7.2876L10.1649 13.003C10.8261 13.4659 11.1567 13.6973 11.5163 13.7869C11.8339 13.8661 12.1661 13.8661 12.4837 13.7869C12.8433 13.6973 13.1739 13.4659 13.8351 13.003L22 7.2876M6.8 20.2876H17.2C18.8802 20.2876 19.7202 20.2876 20.362 19.9606C20.9265 19.673 21.3854 19.2141 21.673 18.6496C22 18.0078 22 17.1678 22 15.4876V9.0876C22 7.40744 22 6.56736 21.673 5.92563C21.3854 5.36114 20.9265 4.9022 20.362 4.61458C19.7202 4.2876 18.8802 4.2876 17.2 4.2876H6.8C5.11984 4.2876 4.27976 4.2876 3.63803 4.61458C3.07354 4.9022 2.6146 5.36114 2.32698 5.92563C2 6.56736 2 7.40744 2 9.0876V15.4876C2 17.1678 2 18.0078 2.32698 18.6496C2.6146 19.2141 3.07354 19.673 3.63803 19.9606C4.27976 20.2876 5.11984 20.2876 6.8 20.2876Z" stroke="#98A2B3" stroke-width="2" stroke-linecap="round" stroke-linejoin="round"/>
</svg>
